<svg xmlns="http://www.w3.org/2000/svg" xmlns:xlink="http://www.w3.org/1999/xlink" width="245.533" height="101.5" viewBox="0 0 245.533 101.5">
  <defs>
    <clipPath id="clip-path">
      <rect id="Rectangle_3" data-name="Rectangle 3" width="245.533" height="101.5" fill="none"/>
    </clipPath>
  </defs>
  <g id="Group_6" data-name="Group 6" transform="translate(-43 -133)">
    <g id="Group_3" data-name="Group 3" transform="translate(43 133)">
      <path id="Path_2" data-name="Path 2" d="M0,0V101.5H101.5V82.348H93.413V93.412H8.142V8.143H93.413V32.076H101.5V0Z" transform="translate(0 0)" fill="#00b0f0"/>
      <g id="Group_2" data-name="Group 2">
        <g id="Group_1" data-name="Group 1" clip-path="url(#clip-path)">
          <path id="Path_3" data-name="Path 3" d="M69.381,48.405V70.235a1.788,1.788,0,0,1-1.938,2.011H61.185a1.842,1.842,0,0,1-2.011-2.011V51.982c0-4.769-2.831-8.047-7.078-8.047-4.544,0-7.525,3.426-7.525,8.419v17.88a1.842,1.842,0,0,1-2.013,2.011H36.375a1.808,1.808,0,0,1-2.011-2.011V19.423a1.808,1.808,0,0,1,2.011-2.011s8.2,5.159,8.2,6.426V41.1H44.8c1.267-4.023,5.736-6.7,11.25-6.7,8.047,0,13.336,5.587,13.336,14.006" transform="translate(7.049 3.571)" fill="#fff"/>
          <path id="Path_4" data-name="Path 4" d="M67.58,60.562c-.372-1.267.3-2.085,1.565-2.31l4.916-.745c1.118-.223,1.639.372,2.31,1.491,1.044,2.011,3.576,3.278,6.855,3.278,3.577,0,5.811-1.415,5.811-3.725,0-1.416-.819-2.383-2.906-2.831l-6.557-1.265C72.274,52.964,68.1,49.24,68.1,43.427c0-7.079,6.408-11.845,15.2-11.92,6.853,0,11.846,3.2,14.155,7.9.522,1.191,0,2.085-1.267,2.531l-4.769,1.341c-1.192.372-1.862-.074-2.533-1.117A6.4,6.4,0,0,0,83.3,39.478c-2.981,0-4.993,1.417-4.993,3.578,0,1.639,1.193,2.755,3.726,3.2L88.59,47.6C95.519,48.94,99.245,52.591,99.245,58.1c0,7.154-6.257,12.144-15.646,12.144-7.972,0-14.155-3.8-16.018-9.686" transform="translate(13.841 6.463)" fill="#fff"/>
          <path id="Path_5" data-name="Path 5" d="M106.2,35.012h2.483v5.233a4.05,4.05,0,0,1,3.555-1.811c2.907,0,3.98,1.9,3.98,4.941v6.35h-2.483V43.688c0-1.811-.492-2.862-2.326-2.862a2.781,2.781,0,0,0-2.727,3.086v5.812H106.2Z" transform="translate(21.783 7.182)" fill="#fff"/>
          <path id="Path_6" data-name="Path 6" d="M117.073,43.62a5.7,5.7,0,0,1,5.7-5.769,5.52,5.52,0,0,1,5.322,5.68,8.167,8.167,0,0,1-.067.96h-8.385a3.312,3.312,0,0,0,3.444,2.684,5.653,5.653,0,0,0,3.174-.962l.985,1.833a7.539,7.539,0,0,1-4.2,1.32,5.657,5.657,0,0,1-5.971-5.746m8.609-.962a3.037,3.037,0,0,0-3.041-2.638,3.151,3.151,0,0,0-3.019,2.638Z" transform="translate(24.014 7.764)" fill="#fff"/>
          <path id="Path_7" data-name="Path 7" d="M128.6,43.62c0-3.2,2.08-5.769,5.121-5.769a4.767,4.767,0,0,1,3.69,1.632V38.074h2.483V49.143h-2.483V47.756a4.746,4.746,0,0,1-3.69,1.61c-3.041,0-5.121-2.572-5.121-5.746m8.811,0a3.137,3.137,0,0,0-3.063-3.377,3.369,3.369,0,0,0,0,6.731,3.117,3.117,0,0,0,3.063-3.354" transform="translate(26.377 7.764)" fill="#fff"/>
          <rect id="Rectangle_2" data-name="Rectangle 2" width="2.483" height="14.712" transform="translate(169.888 42.194)" fill="#fff"/>
          <path id="Path_8" data-name="Path 8" d="M146.89,46.005V40.528h-1.632V38.493h1.632V36.323l2.483-.513v2.683H152.7v2.035h-3.331v5.545c0,1.185.558,1.564,1.185,1.564a3.083,3.083,0,0,0,1.61-.536l.738,1.856a4.772,4.772,0,0,1-2.661.828c-2.258,0-3.354-1.23-3.354-3.779" transform="translate(29.795 7.345)" fill="#fff"/>
          <path id="Path_9" data-name="Path 9" d="M153.923,35.012h2.483v5.233a4.05,4.05,0,0,1,3.555-1.811c2.907,0,3.98,1.9,3.98,4.941v6.35h-2.483V43.688c0-1.811-.492-2.862-2.326-2.862a2.781,2.781,0,0,0-2.727,3.086v5.812h-2.483Z" transform="translate(31.572 7.182)" fill="#fff"/>
          <path id="Path_10" data-name="Path 10" d="M164.8,43.62a5.794,5.794,0,0,1,5.881-5.769,6.083,6.083,0,0,1,3.958,1.43l-1.543,1.767a3.451,3.451,0,0,0-2.37-.805,3.366,3.366,0,1,0,.067,6.731,4.073,4.073,0,0,0,2.706-.962l1.364,1.878a6.472,6.472,0,0,1-4.182,1.476A5.775,5.775,0,0,1,164.8,43.62" transform="translate(33.802 7.764)" fill="#fff"/>
          <path id="Path_11" data-name="Path 11" d="M174.926,43.62c0-3.2,2.08-5.769,5.121-5.769a4.766,4.766,0,0,1,3.69,1.632V38.074h2.483V49.143h-2.483V47.756a4.745,4.745,0,0,1-3.69,1.61c-3.041,0-5.121-2.572-5.121-5.746m8.811,0a3.137,3.137,0,0,0-3.063-3.377,3.369,3.369,0,0,0,0,6.731,3.117,3.117,0,0,0,3.063-3.354" transform="translate(35.88 7.764)" fill="#fff"/>
          <path id="Path_12" data-name="Path 12" d="M187.3,38.074h2.483v2.191a3.988,3.988,0,0,1,4-2.415v2.707c-2.438,0-4,1.162-4,4.068v4.517H187.3Z" transform="translate(38.419 7.764)" fill="#fff"/>
          <path id="Path_13" data-name="Path 13" d="M194.594,43.62a5.7,5.7,0,0,1,5.7-5.769,5.52,5.52,0,0,1,5.322,5.68,8.168,8.168,0,0,1-.067.96h-8.385a3.312,3.312,0,0,0,3.444,2.684,5.653,5.653,0,0,0,3.174-.962l.985,1.833a7.538,7.538,0,0,1-4.2,1.32,5.657,5.657,0,0,1-5.971-5.746m8.609-.962a3.037,3.037,0,0,0-3.041-2.638,3.151,3.151,0,0,0-3.019,2.638Z" transform="translate(39.914 7.764)" fill="#fff"/>
          <path id="Path_14" data-name="Path 14" d="M105.718,63.991l.939-2.034a5.436,5.436,0,0,0,3.511,1.318c1.006,0,2.192-.38,2.192-1.163,0-.805-1.118-1.006-2.214-1.318-2.1-.582-3.891-1.208-3.891-3.377s2.214-3.332,4.159-3.332a7.108,7.108,0,0,1,3.959,1.141l-.917,2.011a5.858,5.858,0,0,0-3.019-.827c-.827,0-1.655.38-1.655.962,0,.76.917.939,1.9,1.14,2.057.447,4.2,1.275,4.2,3.555,0,2.595-2.661,3.533-4.718,3.533a6.594,6.594,0,0,1-4.449-1.61" transform="translate(21.685 11.094)" fill="#fff"/>
          <path id="Path_15" data-name="Path 15" d="M115.774,61V54.271h2.483v6.373c0,1.767.782,2.527,2.325,2.527a2.728,2.728,0,0,0,2.639-3.019V54.271H125.7V65.34h-2.348v-1.7a4.2,4.2,0,0,1-3.555,1.923c-2.93,0-4.025-1.655-4.025-4.561" transform="translate(23.747 11.132)" fill="#fff"/>
          <path id="Path_16" data-name="Path 16" d="M126.7,59.854a5.794,5.794,0,0,1,5.881-5.769,6.083,6.083,0,0,1,3.958,1.43L135,57.282a3.451,3.451,0,0,0-2.37-.805,3.366,3.366,0,1,0,.067,6.731,4.073,4.073,0,0,0,2.706-.962l1.364,1.879a6.472,6.472,0,0,1-4.182,1.476,5.775,5.775,0,0,1-5.881-5.747" transform="translate(25.989 11.094)" fill="#fff"/>
          <path id="Path_17" data-name="Path 17" d="M136.834,59.854a5.794,5.794,0,0,1,5.881-5.769,6.083,6.083,0,0,1,3.958,1.43l-1.543,1.767a3.451,3.451,0,0,0-2.37-.805,3.366,3.366,0,1,0,.067,6.731,4.073,4.073,0,0,0,2.705-.962l1.364,1.879a6.472,6.472,0,0,1-4.182,1.476,5.775,5.775,0,0,1-5.881-5.747" transform="translate(28.067 11.094)" fill="#fff"/>
          <path id="Path_18" data-name="Path 18" d="M146.964,59.854a5.7,5.7,0,0,1,5.7-5.768,5.519,5.519,0,0,1,5.322,5.68,8.165,8.165,0,0,1-.067.96h-8.385a3.312,3.312,0,0,0,3.444,2.684,5.635,5.635,0,0,0,3.174-.963l.985,1.834a7.537,7.537,0,0,1-4.2,1.318,5.657,5.657,0,0,1-5.971-5.746m8.609-.962a3.037,3.037,0,0,0-3.041-2.638,3.151,3.151,0,0,0-3.019,2.638Z" transform="translate(30.145 11.094)" fill="#fff"/>
          <path id="Path_19" data-name="Path 19" d="M158.32,63.991l.939-2.034a5.436,5.436,0,0,0,3.51,1.318c1.006,0,2.192-.38,2.192-1.163,0-.805-1.118-1.006-2.214-1.318-2.1-.582-3.891-1.208-3.891-3.377s2.214-3.332,4.159-3.332a7.109,7.109,0,0,1,3.959,1.141l-.917,2.011a5.858,5.858,0,0,0-3.019-.827c-.827,0-1.655.38-1.655.962,0,.76.917.939,1.9,1.14,2.057.447,4.2,1.275,4.2,3.555,0,2.595-2.661,3.533-4.718,3.533a6.594,6.594,0,0,1-4.449-1.61" transform="translate(32.474 11.094)" fill="#fff"/>
          <path id="Path_20" data-name="Path 20" d="M168.024,63.991l.939-2.034a5.436,5.436,0,0,0,3.511,1.318c1.006,0,2.192-.38,2.192-1.163,0-.805-1.118-1.006-2.214-1.318-2.1-.582-3.891-1.208-3.891-3.377s2.214-3.332,4.159-3.332a7.108,7.108,0,0,1,3.959,1.141l-.917,2.011a5.858,5.858,0,0,0-3.019-.827c-.827,0-1.655.38-1.655.962,0,.76.917.939,1.9,1.14,2.057.447,4.2,1.275,4.2,3.555,0,2.595-2.661,3.533-4.718,3.533a6.594,6.594,0,0,1-4.449-1.61" transform="translate(34.465 11.094)" fill="#fff"/>
        </g>
      </g>
    </g>
  </g>
</svg>
